<svg width="68" height="68" viewBox="0 0 68 68" fill="none" xmlns="http://www.w3.org/2000/svg">
<g id="Frame">
<path id="Vector" d="M35.7158 11.9423L60.968 31.5828C61.2209 31.7796 61.4256 32.0315 61.5663 32.3194C61.7071 32.6072 61.7803 32.9234 61.7803 33.2439C61.7803 33.5643 61.7071 33.8805 61.5663 34.1684C61.4256 34.4563 61.2209 34.7082 60.968 34.9049L35.713 54.5455C35.402 54.7869 35.0296 54.9363 34.6379 54.9767C34.2463 55.017 33.8512 54.9467 33.4975 54.7736C33.1439 54.6006 32.8459 54.3318 32.6373 53.9979C32.4288 53.6639 32.3182 53.2781 32.318 52.8844V38.6394L11.8638 54.5483C11.5526 54.7899 11.1799 54.9393 10.788 54.9795C10.3961 55.0198 10.0008 54.9492 9.64703 54.7758C9.29327 54.6025 8.99529 54.3333 8.78698 53.9989C8.57868 53.6645 8.46842 53.2784 8.46875 52.8844L8.47156 13.6033C8.47175 13.2096 8.58239 12.8238 8.7909 12.4899C8.99942 12.1559 9.29744 11.8871 9.65109 11.7141C10.0047 11.5411 10.3998 11.4707 10.7915 11.5111C11.1831 11.5514 11.5556 11.7008 11.8666 11.9423L32.3152 27.8483L32.3208 13.6033C32.321 13.2096 32.4316 12.8238 32.6402 12.4899C32.8487 12.1559 33.1467 11.8871 33.5003 11.7141C33.854 11.5411 34.2491 11.4707 34.6407 11.5111C35.0324 11.5514 35.4049 11.7008 35.7158 11.9423Z" fill="#F6F6F6"/>
</g>
</svg>
