<svg width="76" height="75" viewBox="0 0 76 75" fill="none" xmlns="http://www.w3.org/2000/svg">
<path id="Vector" d="M38.0352 0C58.7124 0 75.5352 16.8227 75.5352 37.5C75.5352 58.1773 58.7124 75 38.0352 75C17.3579 75 0.535156 58.1773 0.535156 37.5C0.535156 16.8227 17.3579 0 38.0352 0ZM43.8044 49.0385C43.8044 49.8035 44.1083 50.5372 44.6493 51.0782C45.1902 51.6192 45.924 51.9231 46.689 51.9231C47.4541 51.9231 48.1878 51.6192 48.7287 51.0782C49.2697 50.5372 49.5736 49.8035 49.5736 49.0385V25.9615C49.5736 25.1965 49.2697 24.4628 48.7287 23.9218C48.1878 23.3808 47.4541 23.0769 46.689 23.0769C45.924 23.0769 45.1902 23.3808 44.6493 23.9218C44.1083 24.4628 43.8044 25.1965 43.8044 25.9615V49.0385ZM26.4967 49.0385C26.4967 49.8035 26.8006 50.5372 27.3416 51.0782C27.8825 51.6192 28.6163 51.9231 29.3813 51.9231C30.1464 51.9231 30.8801 51.6192 31.421 51.0782C31.962 50.5372 32.2659 49.8035 32.2659 49.0385V25.9615C32.2659 25.1965 31.962 24.4628 31.421 23.9218C30.8801 23.3808 30.1464 23.0769 29.3813 23.0769C28.6163 23.0769 27.8825 23.3808 27.3416 23.9218C26.8006 24.4628 26.4967 25.1965 26.4967 25.9615V49.0385Z" fill="white"/>
</svg>
