<svg width="198" height="198" viewBox="0 0 198 198" fill="none" xmlns="http://www.w3.org/2000/svg">
<path id="Vector" d="M0.639648 98.945C0.639648 44.7076 44.605 0.742188 98.8424 0.742188C153.08 0.742188 197.045 44.7076 197.045 98.945C197.045 153.182 153.08 197.148 98.8424 197.148C44.605 197.148 0.639648 153.182 0.639648 98.945ZM87.608 61.186C85.7395 60.1503 83.633 59.6202 81.4969 59.648C79.3607 59.6759 77.2687 60.2608 75.4279 61.3449C73.587 62.429 72.0609 63.9747 71.0005 65.8293C69.9401 67.684 69.3821 69.7832 69.3816 71.9196V125.97C69.3821 128.107 69.9401 130.206 71.0005 132.061C72.0609 133.915 73.587 135.461 75.4279 136.545C77.2687 137.629 79.3607 138.214 81.4969 138.242C83.633 138.27 85.7395 137.74 87.608 136.704L144.143 105.387C145.293 104.75 146.252 103.816 146.919 102.683C147.587 101.551 147.938 100.26 147.938 98.945C147.938 97.6302 147.587 96.3394 146.919 95.2066C146.252 94.0737 145.293 93.1402 144.143 92.5029L87.608 61.186Z" fill="#F6F6F6"/>
</svg>
