<svg width="68" height="68" viewBox="0 0 68 68" fill="none" xmlns="http://www.w3.org/2000/svg">
<g id="Frame">
<path id="Vector" d="M59.2196 13.6027L59.214 52.8838C59.2138 53.2775 59.1032 53.6633 58.8947 53.9973C58.6862 54.3312 58.3881 54.6 58.0345 54.773C57.6808 54.946 57.2857 55.0164 56.8941 54.9761C56.5025 54.9357 56.13 54.7863 55.819 54.5448L35.3648 38.636V52.8838C35.3646 53.2775 35.2539 53.6633 35.0454 53.9973C34.8369 54.3312 34.5389 54.6 34.1852 54.773C33.8316 54.946 33.4365 55.0164 33.0448 54.9761C32.6532 54.9357 32.2807 54.7863 31.9698 54.5448L6.71762 34.9043C6.46469 34.7075 6.26002 34.4556 6.11924 34.1678C5.97846 33.8799 5.90527 33.5637 5.90527 33.2433C5.90527 32.9228 5.97846 32.6066 6.11924 32.3187C6.26002 32.0309 6.46469 31.779 6.71762 31.5822L31.9726 11.9417C32.2835 11.7002 32.656 11.5508 33.0477 11.5105C33.4393 11.4701 33.8344 11.5405 34.1881 11.7135C34.5417 11.8865 34.8397 12.1553 35.0482 12.4893C35.2568 12.8232 35.3674 13.209 35.3676 13.6027L35.3648 27.8477L55.8218 11.9389C56.133 11.6972 56.5057 11.5478 56.8976 11.5076C57.2895 11.4674 57.6848 11.5379 58.0386 11.7113C58.3923 11.8847 58.6903 12.1539 58.8986 12.4882C59.1069 12.8226 59.2172 13.2088 59.2168 13.6027H59.2196Z" fill="#F6F6F6"/>
</g>
</svg>
